<svg version="1.1" xmlns="http://www.w3.org/2000/svg" xmlns:xlink="http://www.w3.org/1999/xlink" width="512.000000pt" height="512.000000pt" viewBox="0,0,256,256"><g fill="#ffffff" fill-rule="nonzero" stroke="none" stroke-width="1" stroke-linecap="butt" stroke-linejoin="miter" stroke-miterlimit="10" stroke-dasharray="" stroke-dashoffset="0" font-family="none" font-weight="none" font-size="none" text-anchor="none" style="mix-blend-mode: normal"><g transform="translate(-3.825,-8.5) scale(0.5,0.5)"><g transform="translate(0,512) scale(0.1,-0.1)"><path d="M2803,4559c-205,-26 -362,-100 -493,-229c-119,-118 -189,-252 -231,-445c-17,-75 -21,-144 -26,-407l-6,-318l-211,-2l-211,-3l-3,-382l-2,-383h215h215v-1090v-1090h455h455v1090v1090h305h305l4,23c3,12 19,164 36,337c17,173 34,336 37,363l6,47h-347h-347l3,263c3,248 4,264 25,303c12,23 39,53 60,65c37,23 44,24 316,27l277,3v375v374l-387,-1c-214,-1 -416,-5 -450,-10z"></path></g></g></g></svg>